<!DOCTYPE svg PUBLIC "-//W3C//DTD SVG 1.1//EN" "http://www.w3.org/Graphics/SVG/1.1/DTD/svg11.dtd">
<!-- Uploaded to: SVG Repo, www.svgrepo.com, Transformed by: SVG Repo Mixer Tools -->
<svg width="32" height="32px" viewBox="0 0 24 24" xmlns="http://www.w3.org/2000/svg" fill="#122844">

<g id="SVGRepo_bgCarrier" stroke-width="0"/>

<g id="SVGRepo_tracerCarrier" stroke-linecap="round" stroke-linejoin="round"/>

<g id="SVGRepo_iconCarrier">

<path d="M19,3H5A2,2,0,0,0,3,5V19a2,2,0,0,0,2,2H19a2,2,0,0,0,2-2V5A2,2,0,0,0,19,3Zm0,14a2,2,0,0,1-2,2h0a2,2,0,0,1-2-2h0a2,2,0,0,1,2-2h0a2,2,0,0,1,2,2ZM19,6.5A1.5,1.5,0,0,1,17.5,8H6.5A1.5,1.5,0,0,1,5,6.5H5A1.5,1.5,0,0,1,6.5,5h11A1.5,1.5,0,0,1,19,6.5Z"/>

<rect width="24" height="24" fill="none"/>

</g>

</svg>